<svg version="1" xmlns="http://www.w3.org/2000/svg" width="346.667" height="346.667" viewBox="0 0 260.000000 260.000000"><path d="M165 2.6c-19.7 6.7-34.1 20.6-40 38.6-2.8 8.7-2.8 25 .1 33.8 5.2 15.9 14 28.6 36.9 53.7 17.6 19.1 21 23.2 24.5 30.1 2.3 4.4 2.7 6.2 2.3 11.1-.5 6.9-3.2 11.1-10.4 16.3-5.4 3.8-4.2 4.9 2 1.8 5.5-2.6 13.2-9.3 15.1-13.1.9-1.7 1.5-5.6 1.5-9.8 0-8.1-1.8-13.1-8.5-23.1-4.3-6.4-6.5-9.3-23.1-29.6-16.6-20.4-24.3-34.3-27.1-48.7-1.6-8.1-1.6-9.3 0-17.3 2.3-11.9 6.4-20.2 13.8-28 7.6-7.8 13.9-12 23.8-15.5l7.6-2.8H178c-3.3 0-8.4 1-13 2.5z"/><path d="M174 7.2c-15.7 8.9-24.3 25.6-24.4 46.8 0 11.9 2.2 20.8 7.9 31.7 5.3 10 9.8 15.9 24.5 32.3 13.9 15.5 19.1 22.4 23.2 30.9 2.9 6 3.3 7.5 3.2 15.6 0 7.3-.4 9.9-2.3 13.7-3.3 6.8-12.3 14.8-21.5 19.3-15.9 7.6-43.1 10.7-57.9 6.6-3.7-1-6.7-1.5-6.7-1.1 0 1.2 8.9 6.6 17 10.4 25.7 11.7 58.4 12 86.1.6 33.7-13.9 45.7-42.8 29.8-71.9-5.3-9.6-11.9-17.3-33.9-39.1-22.9-22.7-29.3-29.8-35.7-39.5-8.2-12.4-10.7-20.2-10.8-33 0-9.5.2-10.3 3.2-15.5 1.7-3 4.1-6.5 5.2-7.7 1.2-1.2 2.1-2.5 2.1-2.8 0-1.4-4-.2-9 2.7z"/><path d="M68 38.2c0 2.1-7.1 15.9-10.6 20.7-1.5 2-11.4 12.1-22 22.6C11.6 105 7 111.8 1 131.6c-1.6 5.4-1 29.5.8 31.7.7.8 1 2.2.6 3-1.3 3.4 4 22.9 8.9 33.1C27.4 232.7 61.4 252.9 112 259c11 1.3 42.7 1.3 52.7 0 38.7-5.2 66.6-19.3 84.8-43 4.3-5.6 10.9-17 10.2-17.6-.2-.2-3.5 2.1-7.3 5.2-11.6 9.3-32.6 18.8-50.9 23.1-8.8 2-36.3 2.8-48.1 1.3-25.7-3.2-40.4-13.3-40.4-27.8 0-5.7.7-7.6 9.7-26.2 10.2-21.3 10.7-22.8 10.6-33.2-.2-13.5-5.6-25.9-16.1-36.7-3.8-3.9-7.3-7.1-7.9-7.1-.8 0-.6 2.2.4 6.7 1.7 7.2.9 13.1-2.4 19.7-2.5 4.8-9.4 11.6-14.8 14.4-4.2 2.3-6.2 2.7-13 2.6-9.4 0-14.4-1.5-19.1-5.7-5.5-4.8-6.8-8.1-6.8-17.2 0-9.2 2.3-17 11.4-39.5 5.4-13.4 7.6-25.5 6-33.8-1-5.5-3-9.4-3-6z"/></svg>